# xmcd CD database file
#
# Track frame offsets:
#	150
#	20425
#	31257
#	48305
#	67397
#	88920
#	112792
#	129012
#	139360
#	159780
#	184672
#	201557
#	215785
#	228102
#
# Disc length: 3235 seconds
#
# Revision: 2
# Processed by: cddbd v1.5.1PL0 Copyright (c) Steve Scherf et al.
# Submitted via: CDex 1.51
#
DISCID=c20ca10e
DTITLE=Fluid Ounces - Foreign Legion
DYEAR=2001
DGENRE=Rock
TTITLE0=Show on the road
TTITLE1=Poet Tree
TTITLE2=Metaphor
TTITLE3=Expect the worst
TTITLE4=Sugar mama
TTITLE5=The last thing
TTITLE6=Smitten
TTITLE7=Encyclopedia Brown
TTITLE8=So far, So good
TTITLE9=Stark Raving Mad
TTITLE10=She Blinded Me with Science
TTITLE11=Thinking Cap (New Recording)
TTITLE12=Invincible Boy (Demo)
TTITLE13=CITY LIGHTS (Home Recording With New Lyrics)
EXTD=YEAR: 2001
EXTT0=
EXTT1=
EXTT2=
EXTT3=
EXTT4=
EXTT5=
EXTT6=
EXTT7=
EXTT8=
EXTT9=
EXTT10=
EXTT11=
EXTT12=
EXTT13=
PLAYORDER=
